<svg xmlns="http://www.w3.org/2000/svg" width="150" height="42" fill="none"><g clip-path="url(#a)"><g fill="#fff" fill-rule="evenodd" clip-path="url(#b)" clip-rule="evenodd"><path d="M9.31 4.735c0-.654.124-1.267.373-1.84a5.062 5.062 0 0 1 1.002-1.509A4.564 4.564 0 0 1 13.989 0c.642 0 1.245.122 1.808.368a4.683 4.683 0 0 1 1.483 1.018c.426.434.76.936 1.001 1.508a4.7 4.7 0 0 1 .362 1.841c0 .655-.12 1.268-.362 1.84a4.77 4.77 0 0 1-1.001 1.509c-.426.434-.92.773-1.484 1.019a4.473 4.473 0 0 1-1.808.368c-.643 0-1.25-.123-1.82-.368a4.498 4.498 0 0 1-1.483-1.019 5.05 5.05 0 0 1-1.002-1.508 4.564 4.564 0 0 1-.374-1.841ZM0 32.265v-1.89h21.44V27.53H0V17.076a4.753 4.753 0 0 1 1.362-3.349c.427-.432.92-.772 1.484-1.017a4.474 4.474 0 0 1 1.81-.369h18.69c.643 0 1.25.123 1.82.369a4.512 4.512 0 0 1 1.483 1.017c.419.434.749.937.99 1.51.24.572.361 1.186.361 1.84v1.89H6.512v2.845H28v10.453c0 .654-.12 1.268-.361 1.84a4.875 4.875 0 0 1-.99 1.509 4.479 4.479 0 0 1-1.482 1.017 4.564 4.564 0 0 1-1.821.369H4.656a4.474 4.474 0 0 1-1.81-.369 4.662 4.662 0 0 1-1.484-1.017A4.753 4.753 0 0 1 0 32.265ZM47.184 38c-.68 0-1.3-.043-1.859-.129a13.888 13.888 0 0 1-1.506-.304 9.368 9.368 0 0 1-1.819-.68l.663-2.015c.221.123.578.27 1.07.44.493.171 1.02.305 1.585.403a9.286 9.286 0 0 0 1.581.147c.991 0 1.764-.153 2.318-.459.553-.304.904-.682 1.053-1.13.148-.448.222-.876.222-1.283 0-.684-.21-1.237-.629-1.655a4.686 4.686 0 0 0-1.516-1.002c-.592-.25-1.128-.47-1.609-.666a20.243 20.243 0 0 1-1.3-.538 7.595 7.595 0 0 1-1.235-.727 4.347 4.347 0 0 1-1.053-1.064 3.494 3.494 0 0 1-.567-1.233 6.026 6.026 0 0 1-.137-1.303c0-.732.13-1.396.39-1.99.259-.595.629-1.101 1.11-1.517.48-.415 1.065-.734 1.756-.959.69-.224 1.467-.336 2.33-.336.656 0 1.266.043 1.831.129.565.085 1.032.183 1.402.293.37.11.636.185.796.226v2.212c-.39-.155-.81-.292-1.259-.41-.45-.118-.914-.209-1.391-.274a10.32 10.32 0 0 0-1.402-.098c-1.023 0-1.819.224-2.386.672-.57.448-.854 1.092-.854 1.93 0 .424.09.783.269 1.076.18.293.434.552.762.776.328.224.717.43 1.167.616.45.189.946.384 1.488.588.596.236 1.167.484 1.718.745a5.71 5.71 0 0 1 1.447.971c.416.387.75.862 1.002 1.424.252.563.378 1.259.378 2.09 0 .807-.132 1.523-.395 2.15A4.173 4.173 0 0 1 51.46 36.7c-.5.428-1.109.751-1.825.971-.718.22-1.535.33-2.45.33ZM61.093 35.209c.583 0 1.094-.115 1.534-.343.44-.229.766-.514.977-.857.21-.343.368-.681.472-1.016.114-.366.2-.762.256-1.186.056-.425.084-.87.084-1.334 0-1.003-.122-1.85-.364-2.539-.242-.69-.598-1.175-1.067-1.457a2.902 2.902 0 0 0-1.528-.421c-.485 0-.918.116-1.298.349-.38.231-.698.556-.958.973a4.859 4.859 0 0 0-.588 1.492 8.423 8.423 0 0 0-.2 1.896v3.255a4.35 4.35 0 0 0 1.201.869c.437.213.93.319 1.479.319ZM56 42V24.257h2.304l.049 1.848a3.78 3.78 0 0 1 .921-1.146 3.693 3.693 0 0 1 1.328-.733 5.074 5.074 0 0 1 1.51-.226c1.165 0 2.13.308 2.9.923.766.617 1.29 1.429 1.568 2.435.28 1.009.42 2.03.42 3.066 0 1.069-.118 2.023-.353 2.863-.234.84-.58 1.549-1.037 2.123a4.457 4.457 0 0 1-1.697 1.316c-.675.302-1.45.453-2.322.453-.712 0-1.326-.092-1.844-.276a4.325 4.325 0 0 1-1.333-.74V42H56ZM73.625 35.154c.435 0 .873-.07 1.312-.206.439-.138.787-.292 1.043-.465.254-.173.456-.335.604-.489v-3.392h-.914c-.715 0-1.335.042-1.86.127-.527.085-.964.228-1.314.429-.35.2-.61.462-.783.784-.172.322-.259.716-.259 1.183 0 .41.087.782.259 1.116.173.334.432.57.777.707.345.136.724.206 1.135.206ZM72.945 37c-.533 0-1.04-.07-1.522-.205-.48-.137-.9-.357-1.257-.659a3.161 3.161 0 0 1-.852-1.17c-.209-.478-.314-1.06-.314-1.744 0-.95.223-1.732.666-2.349.444-.615 1.097-1.092 1.96-1.43a7.706 7.706 0 0 1 1.634-.41c.604-.089 1.281-.14 2.03-.157.031 0 .113-.002.24-.007.126-.004.261-.006.4-.006s.274-.002.4-.006l.254-.005v-.676c0-.627-.118-1.113-.353-1.455-.232-.342-.593-.575-1.079-.7a6.238 6.238 0 0 0-1.553-.187c-.69 0-1.327.069-1.91.205-.584.137-1.143.298-1.678.483v-1.955c.69-.177 1.192-.294 1.505-.35a14.25 14.25 0 0 1 1.196-.151c.484-.045.94-.066 1.367-.066.849 0 1.582.08 2.203.241.62.16 1.132.41 1.534.748.403.338.7.769.894 1.292.193.523.29 1.147.29 1.871v8.606h-2.317l-.05-1.062c-.246.242-.562.46-.943.657a5.655 5.655 0 0 1-1.332.471 6.335 6.335 0 0 1-1.412.176ZM83 37V24.075h2.355l.048 2.446a5.079 5.079 0 0 1 1.054-1.473c.412-.391.842-.663 1.288-.817.447-.154.876-.231 1.289-.231.421 0 .743.025.966.075v2.346c-.199-.05-.492-.075-.88-.075-.619 0-1.156.114-1.61.343a3.625 3.625 0 0 0-1.821 2.065c-.15.431-.223.849-.223 1.248V37H83ZM93 37V19h2.282v10.405l4.438-4.796h2.74l-5 5.358c.49.447.984.95 1.48 1.507.497.559.981 1.143 1.451 1.753.469.61.925 1.235 1.365 1.877.439.643.854 1.274 1.244 1.896h-2.856a53.08 53.08 0 0 0-1.611-2.26 41.71 41.71 0 0 0-1.72-2.153 36.235 36.235 0 0 0-1.53-1.687V37H93ZM108.624 35.154c.436 0 .873-.07 1.313-.206.439-.138.786-.292 1.042-.465.256-.173.457-.335.604-.489v-3.392h-.912c-.716 0-1.336.042-1.862.127-.526.085-.964.228-1.313.429a1.98 1.98 0 0 0-.783.784c-.172.322-.259.716-.259 1.183 0 .41.087.782.259 1.116.172.334.432.57.777.707.345.136.723.206 1.134.206ZM107.946 37a5.6 5.6 0 0 1-1.523-.205 3.342 3.342 0 0 1-1.257-.659 3.156 3.156 0 0 1-.852-1.17c-.209-.478-.314-1.06-.314-1.744 0-.95.222-1.732.666-2.349.443-.615 1.098-1.092 1.96-1.43a7.72 7.72 0 0 1 1.634-.41c.605-.089 1.28-.14 2.029-.157.032 0 .113-.002.24-.007.127-.004.261-.006.4-.006.14 0 .274-.002.401-.006l.253-.005v-.676c0-.627-.118-1.113-.351-1.455-.235-.342-.594-.575-1.079-.7a6.256 6.256 0 0 0-1.554-.187c-.691 0-1.328.069-1.912.205-.582.137-1.142.298-1.677.483v-1.955a24.843 24.843 0 0 1 1.505-.35 14.19 14.19 0 0 1 1.197-.151c.484-.045.941-.066 1.368-.066.847 0 1.58.08 2.201.241.62.16 1.133.41 1.536.748.402.338.7.769.893 1.292.193.523.29 1.147.29 1.871v8.606h-2.318l-.05-1.062c-.246.242-.561.46-.943.657a5.634 5.634 0 0 1-1.331.471 6.34 6.34 0 0 1-1.412.176ZM121.209 37a10.939 10.939 0 0 1-2.663-.315 8.61 8.61 0 0 1-.918-.276 6.412 6.412 0 0 1-.628-.267l.605-1.81c.395.169.753.304 1.072.405a8.534 8.534 0 0 0 2.384.343c.685 0 1.23-.083 1.637-.247.407-.165.673-.385.798-.658a1.92 1.92 0 0 0 .188-.808c0-.434-.157-.783-.473-1.045-.316-.261-.713-.473-1.192-.633-.478-.162-.92-.318-1.323-.472-.48-.168-.921-.345-1.328-.53a4.229 4.229 0 0 1-1.062-.676 2.759 2.759 0 0 1-.701-.966c-.167-.378-.251-.84-.251-1.388 0-.588.105-1.111.314-1.57a3.08 3.08 0 0 1 .883-1.146 3.99 3.99 0 0 1 1.381-.7 6.235 6.235 0 0 1 1.791-.241c.775 0 1.448.048 2.019.145.569.096 1.072.212 1.506.35v1.98a9.952 9.952 0 0 0-1.57-.418c-.551-.1-1.157-.15-1.819-.15-.783 0-1.361.13-1.733.386-.373.257-.559.647-.559 1.17 0 .266.067.491.2.677.132.185.321.35.564.495.243.145.542.279.896.404.353.125.75.26 1.192.405.912.296 1.628.611 2.15.941.52.33.888.74 1.106 1.231.217.49.325 1.026.325 1.606 0 .636-.113 1.19-.342 1.665a3.176 3.176 0 0 1-.97 1.184 4.291 4.291 0 0 1-1.511.699c-.59.153-1.246.23-1.968.23ZM132.21 37a10.943 10.943 0 0 1-2.663-.315 8.562 8.562 0 0 1-.919-.276 6.412 6.412 0 0 1-.628-.267l.605-1.81c.395.169.753.304 1.072.405a8.534 8.534 0 0 0 2.384.343c.685 0 1.23-.083 1.637-.247.407-.165.673-.385.798-.658a1.92 1.92 0 0 0 .188-.808c0-.434-.157-.783-.473-1.045-.316-.261-.713-.473-1.192-.633-.478-.162-.92-.318-1.323-.472-.48-.168-.921-.345-1.328-.53a4.205 4.205 0 0 1-1.061-.676 2.749 2.749 0 0 1-.702-.966c-.167-.378-.25-.84-.25-1.388 0-.588.104-1.111.313-1.57a3.08 3.08 0 0 1 .883-1.146 3.99 3.99 0 0 1 1.381-.7 6.237 6.237 0 0 1 1.792-.241c.774 0 1.447.048 2.018.145.569.096 1.072.212 1.506.35v1.98a9.952 9.952 0 0 0-1.57-.418c-.551-.1-1.157-.15-1.819-.15-.783 0-1.361.13-1.733.386-.373.257-.559.647-.559 1.17 0 .266.067.491.2.677.132.185.321.35.564.495.243.145.542.279.896.404.353.125.75.26 1.192.405.912.296 1.628.611 2.15.941.52.33.889.74 1.106 1.231.217.49.325 1.026.325 1.606 0 .636-.113 1.19-.341 1.665a3.188 3.188 0 0 1-.971 1.184 4.291 4.291 0 0 1-1.511.699c-.59.153-1.246.23-1.967.23ZM142.364 29.519h5.251v-.564c0-1.02-.196-1.81-.588-2.37-.392-.558-1.007-.838-1.844-.838-.883 0-1.556.331-2.02.994-.465.663-.731 1.588-.799 2.778ZM145.651 37c-.898 0-1.697-.151-2.396-.454a4.822 4.822 0 0 1-1.776-1.3c-.484-.562-.85-1.243-1.102-2.04-.251-.798-.377-1.693-.377-2.682 0-.965.115-1.85.344-2.652.228-.8.562-1.49 1.004-2.065a4.516 4.516 0 0 1 1.643-1.335c.655-.315 1.404-.472 2.249-.472 1.576 0 2.763.498 3.562 1.496.798.998 1.198 2.426 1.198 4.285 0 .551-.015 1.035-.046 1.45h-7.545c.092 1.253.426 2.212 1.005 2.879.578.666 1.434 1 2.568 1a9.92 9.92 0 0 0 1.53-.115c.495-.075.928-.17 1.301-.282l.446 1.82a9.014 9.014 0 0 1-1.604.354c-.576.075-1.243.113-2.004.113Z"/></g></g><defs><clipPath id="a"><path fill="#fff" d="M0 0h150v42H0z"/></clipPath><clipPath id="b"><path fill="#fff" d="M0 0h150v42H0z"/></clipPath></defs></svg>